PathFileType	4	(X/Y/Z)	Patient4_TMGait_0pt6_01_left_21.trc.trc
DataRate	CameraRate	NumFrames	NumMarkers	Units	OrigDataRate	OrigDataStartFrame	OrigNumFrames
80.459770114942	80.459770114942	4	33	mm	80.459770114942	106	       141
Frame#	Time	Sacral			L.Shoulder			Chest			R.Shoulder			Neck			R.ASIS			L.ASIS			R.Thigh.Superior			R.Thigh.Lateral			R.Thigh.Inferior			R.Patella			L.Thigh.Superior			L.Thigh.Lateral			L.Thigh.Inferior			L.Patella			L.Shank.Superior			L.Shank.Lateral			L.Shank.Inferior			R.Shank.Superior			R.Shank.Lateral			R.Shank.Inferior			R.Heel			R.Midfoot.Superior			R.Midfoot.Lateral			R.Toe			L.Heel			L.Midfoot.Lateral			L.Midfoot.Superior			L.Toe			L.Elbow			L.Wrist			R.Elbow			R.Wrist			
		X1	Y1	Z1	X2	Y2	Z2	X3	Y3	Z3	X4	Y4	Z4	X5	Y5	Z5	X6	Y6	Z6	X7	Y7	Z7	X8	Y8	Z8	X9	Y9	Z9	X10	Y10	Z10	X11	Y11	Z11	X12	Y12	Z12	X13	Y13	Z13	X14	Y14	Z14	X15	Y15	Z15	X16	Y16	Z16	X17	Y17	Z17	X18	Y18	Z18	X19	Y19	Z19	X20	Y20	Z20	X21	Y21	Z21	X22	Y22	Z22	X23	Y23	Z23	X24	Y24	Z24	X25	Y25	Z25	X26	Y26	Z26	X27	Y27	Z27	X28	Y28	Z28	X29	Y29	Z29	X30	Y30	Z30	X31	Y31	Z31	X32	Y32	Z32	X33	Y33	Z33	

106	26.825000000000	657.605845566613	1009.039370176381	548.682744655783	807.975016294182	1437.990146291372	360.023294629238	926.795511876576	1369.428001680162	510.343914907964	859.956565615090	1439.498745112219	691.775294154530	804.968092818447	1497.137055821562	515.886005086127	888.027198598191	946.278294643994	655.742818013706	861.454087979154	964.799578116830	381.795483475396	902.437174583930	735.950816713621	622.390036322570	806.203419400258	634.112304417117	679.297385211721	874.858584984534	575.398666735567	599.503615494991	863.132690205798	489.849638876601	601.927257894575	950.265760159691	788.795103833348	410.018387562488	913.671354138728	662.620825166572	326.020347441819	1019.728177354927	606.109753137074	386.351433320463	1044.859909744077	527.050931806720	376.371086495565	1004.702328186174	450.874964853859	367.511981402847	893.873343849652	354.561564274528	320.366209520293	941.150701237336	230.941056426015	371.222510757806	832.366385299056	403.530129133540	603.737208612047	754.388565897512	300.289994004940	657.590879565706	796.333496028159	206.723050739475	590.992995316860	658.783278783976	44.339110827715	546.328088331332	828.513349022106	95.870129119843	591.437758384287	738.568485259210	36.805690701023	624.814550103230	947.084217975930	40.799992088787	624.331381931231	800.361427917403	89.153276066038	413.267280399666	866.616861757116	76.776727685616	328.178354036965	958.951264764358	127.633093061876	346.021211711668	1074.485619307030	61.398310435356	308.228036898688	751.906365105174	1082.826439515989	256.950019882515	781.378852815150	824.762170337771	252.726891900418	942.792055624580	1104.737151707722	813.438049823192	1190.800588623913	1070.942926176394	760.447794941799	
107	26.837428571429	656.814030001637	1008.862992773927	549.501291540279	806.718147350837	1437.684733928626	360.490030152172	926.216182234370	1368.801470484196	510.170761608030	860.375615836876	1438.927073029694	691.917229741629	804.532006616769	1496.655008682092	516.608326142068	887.383917221266	945.629325131383	655.776259369362	860.159206434846	964.142336191655	381.889291109466	899.876463636636	735.012552602457	622.818397517092	802.504120027125	633.877468385631	679.751292918995	870.378450891563	574.629702482608	599.977089571346	857.789319703533	489.309217580581	602.375679674116	947.715912830878	787.470081188234	410.090673566948	911.101298048317	661.670407531909	325.587056622598	1016.447374997996	604.943333979781	387.004374877667	1042.811028058742	528.199078091890	376.808836332677	1006.669487931239	452.199406320214	367.285622001533	902.805998069307	349.128931249163	319.009758715654	957.919016270414	228.440690327836	369.811126463003	826.501096998279	403.183769195503	604.115501688121	747.980375628251	300.272152198996	657.893820833515	789.487405108934	206.548024046149	591.199923034370	651.371768019441	44.392239084288	546.438397396956	821.137715064709	95.904456933117	591.621593548369	731.079025871485	36.784979414754	624.745593954060	939.592322372441	40.652016281592	624.398830293960	826.678081616597	77.418120055525	410.712184162650	894.335908831965	69.448803530011	326.079504302852	983.060623116796	126.192377293869	344.502063421314	1103.023666722787	67.533214745824	307.628814598840	743.140803625257	1084.108684146105	257.167796259549	765.946002340577	825.433433583852	254.649143160528	952.026921281341	1107.105600289936	812.834491483616	1200.783578728064	1089.175655396370	757.413748213260	
108	26.849857142857	656.067072637792	1008.582433799341	550.175087103873	805.517320877234	1437.304828728112	360.819314936130	925.668410115277	1368.093732680954	509.863354028160	860.770260983246	1438.249456065528	691.901715009544	804.064957963826	1496.083078053139	517.120163851141	886.822622635798	944.888896963412	655.665925970375	858.932664368215	963.330425808074	381.831295024219	897.532756536012	734.002517306521	623.254705920242	798.991761735080	633.580939066526	680.131977499147	866.103418014816	573.821480388683	600.382629014895	852.650147972531	488.713776356085	602.704787694533	945.011061664569	785.752684749288	410.058135393936	908.223369463114	660.411663287342	325.051101097024	1012.844799546472	603.376974590710	387.601535716964	1040.374459130977	528.982907945246	377.306309848250	1008.137819832094	453.412256826346	367.190541278849	911.478772055967	344.169712464723	317.713971168595	973.861658683533	226.836744150654	368.700591460509	820.786840121384	402.781607914773	604.412813493143	741.723923471759	300.233741644502	658.160828440682	782.702818932267	206.337531477182	591.368073063947	643.942918118445	44.432252846006	546.557159680653	813.751992564229	95.926563564926	591.790807970556	723.580173916108	36.746843712409	624.674352857616	932.105969197832	40.518734662243	624.466350829240	852.220610023482	67.620191961804	408.377967596673	921.225728057891	63.680069875384	324.389467436138	1006.142681609567	125.840909846927	343.450699711495	1129.981466518041	74.490131572255	307.943024598317	734.479482357003	1085.460190082530	257.436195522882	751.152688905089	826.362354456894	256.602938428845	961.082704220609	1109.598217331715	811.995249036863	1209.633809474101	1106.903840917888	754.377151152742	
109	26.862285714286	655.369520026441	1008.224918469795	550.717169250517	804.361452429500	1436.867305856000	361.005352745053	925.149637191976	1367.336701572322	509.414150464057	861.148483530705	1437.512124931965	691.719715080279	803.573171635279	1495.444439078398	517.415178669413	886.349613385748	944.075189265424	655.405528194117	857.755145032907	962.417784535300	381.618904743791	895.367808092115	732.928744080842	623.627211486859	795.655783256876	633.234949674235	680.415770597229	862.001532242735	572.978790084876	600.678972968391	847.689751769020	488.067181273855	602.891755019335	942.248396466662	783.807567044948	409.926269127869	905.182574567331	658.962004727366	324.434419686519	1009.132894583252	601.589853354998	388.072161319436	1037.736180737288	529.497730653186	377.811480244885	1009.213184642108	454.541283969083	367.192831066987	919.724324856125	339.804371375949	316.570473246927	988.705287950542	226.099055153602	367.915530727064	815.207481773659	402.330322943045	604.612024697576	735.600903533952	300.185399227847	658.381720740150	775.969459552422	206.100844723706	591.493773631200	636.492830423987	44.463720745800	546.680096295435	806.359271037768	95.944228855012	591.955699523420	716.070938933630	36.694837783499	624.607551945446	924.623743424709	40.403491607152	624.533585308797	876.423656251533	59.832885789048	406.441646513558	946.674114212355	59.434345636064	323.209305584040	1027.756249282282	126.456755885675	342.864538867643	1154.888580190529	81.941627220334	309.033565514985	726.020761778286	1086.868498395674	257.772415347551	737.004284100449	827.492648170045	258.557915674376	969.886064780609	1112.220864291615	810.930935502132	1217.404871067649	1123.972614157631	751.368822723643	
